<svg xmlns="http://www.w3.org/2000/svg" xmlns:xlink="http://www.w3.org/1999/xlink" xmlns:fi="http://pattern.flaticon.com/" x="0" y="0" width="1800" height="900" viewBox="0 0 1800 900"><rect x="0px" y="0px" width="100%" height="100%" opacity="1" fill="#ffffff"/><defs><g transform="matrix(0.1315789520740509 0 0 0.1315789520740509 -6 214)" id="L1_10"><path d="M390,145.5L270.83,146c-19.944,0-36.17,16.226-36.17,36.17V274c0,19.944-16.221,36.17-36.16,36.17   h-97.106l10.746,13.079C140.728,358.044,182.958,378,228,378c50.562,0,97.395-25.235,125.28-67.5H390c31.981,0,58-26.019,58-58v-49   C448,171.519,421.981,145.5,390,145.5z" fill="#efefef"/><path d="M344.01,132.932C315.422,98.021,273.138,78,228,78c-50.557,0-97.394,25.235-125.28,67.5H66   c-31.981,0-58,26.019-58,58v49c0,31.981,26.019,58,58,58l28.5-0.33h104c19.938,0,36.16-16.226,36.16-36.17v-91.83   c0-19.944,16.226-36.17,36.17-36.17h83.882L344.01,132.932z" fill="#3e81c8"/><g><path d="M390,137.5h-32.49C327.9,95.15,279.8,70,228,70c-51.81,0-99.9,25.15-129.52,67.5H66c-36.39,0-66,29.61-66,66v49    c0,36.39,29.61,66,66,66h32.48C128.1,360.85,176.19,386,228,386c51.8,0,99.9-25.15,129.51-67.5H390c36.39,0,66-29.61,66-66v-49    C456,167.11,426.39,137.5,390,137.5z M66,302.5c-27.57,0-50-22.43-50-50v-49c0-27.57,22.43-50,50-50h36.72    c2.68,0,5.19-1.35,6.67-3.59C135.8,109.89,180.14,86,228,86c42.9,0,82.96,19.2,109.82,52h-66.99c-24.35,0-44.17,19.81-44.17,44.17    V274c0,15.53-12.63,28.17-28.16,28.17L66,302.5z M440,252.5c0,27.57-22.43,50-50,50h-36.72c-2.69,0-5.2,1.35-6.68,3.59    C320.2,346.11,275.86,370,228,370c-42.83,0-82.82-19.14-109.68-51.83h80.18c24.35,0,44.16-19.82,44.16-44.17v-91.83    c0-15.53,12.64-28.17,28.17-28.17L390,153.5c27.57,0,50,22.43,50,50V252.5z"/><path d="M376.5,223v48c0,4.42-3.58,8-8,8s-8-3.58-8-8v-48c0-4.42,3.58-8,8-8S376.5,218.58,376.5,223z"/><path d="M376.5,198v2c0,4.42-3.58,8-8,8s-8-3.58-8-8v-2c0-4.42,3.58-8,8-8S376.5,193.58,376.5,198z"/><path d="M339.5,233c0,4.42-3.58,8-8,8h-32v29c0,4.42-3.58,8-8,8s-8-3.58-8-8v-72c0-1.69,0.52-3.25,1.42-4.55    c1.06-3.16,4.05-5.45,7.58-5.45h39c4.42,0,8,3.58,8,8s-3.58,8-8,8h-32v21h32C335.92,225,339.5,228.58,339.5,233z"/><path d="M145.313,190.21c-4.304-0.998-8.604,1.675-9.606,5.978l-9.208,39.542l-9.208-39.542l-0.007,0.002    c-0.671-2.872-2.903-5.264-5.97-5.979c-4.305-0.998-8.604,1.675-9.606,5.978L92.5,235.731l-9.208-39.542    c-1.002-4.304-5.304-6.979-9.606-5.978c-4.303,1.003-6.979,5.304-5.977,9.606l17,73c0.86,3.693,4.149,6.188,7.785,6.188    c0.601,0,1.211-0.068,1.821-0.21c3.067-0.715,5.298-3.107,5.97-5.979l0.007,0.002l9.208-39.542l9.208,39.542    c0.86,3.693,4.149,6.188,7.785,6.188c0.601,0,1.211-0.068,1.821-0.21c3.067-0.715,5.298-3.107,5.97-5.979l0.007,0.002l17-73    C152.292,195.514,149.616,191.213,145.313,190.21z"/><path d="M178.499,215.002c-4.418,0-8,3.582-8,8v48c0,4.418,3.582,8,8,8s8-3.582,8-8v-48    C186.499,218.584,182.917,215.002,178.499,215.002z"/><path d="M178.499,190.002c-4.418,0-8,3.582-8,8v2c0,4.418,3.582,8,8,8s8-3.582,8-8v-2    C186.499,193.584,182.917,190.002,178.499,190.002z"/></g></g><g transform="matrix(0.08562620953360842 0.011048543108134483 -0.011048543108134483 0.08562620953360842 142.90811739507868 39.251263323713815)" id="L1_15"><circle cx="256" cy="256" r="256" fill="#6aaf50"/><path d="M135.693,102.206l-0.008,0.004c-29.639,15.464-42.074,51.222-28.494,81.77  c19.547,43.975,45.793,84.198,77.468,119.423l23.939,23.939l159.073,159.073c39.82-19.335,73.863-48.69,98.876-84.783  l-58.697-58.697c-2.262-3.334-5.169-6.299-8.681-8.681L177.747,112.833C168.453,99.138,150.365,94.55,135.693,102.206z" fill="#4d8538"/><path d="M349.593,300.614c-8.192-5.559-18.954-5.531-27.116,0.071l-11.752,8.066  c-13.09,8.984-30.498,8.496-43.08-1.187c-11.858-9.127-23.176-18.913-33.924-29.283c-10.371-10.748-20.156-22.065-29.283-33.924  c-9.684-12.581-10.171-29.989-1.187-43.08l8.066-11.752c5.601-8.162,5.63-18.924,0.071-27.116l-33.64-49.575  c-9.293-13.694-27.381-18.282-42.054-10.627l-0.009,0.004c-29.639,15.464-42.074,51.222-28.494,81.77  c19.547,43.975,45.793,84.198,77.468,119.423l23.939,23.939c35.226,31.674,75.449,57.921,119.423,77.468  c30.549,13.58,66.306,1.145,81.77-28.494l0.004-0.009c7.655-14.672,3.068-32.761-10.627-42.054L349.593,300.614z" fill="#ffffff"/></g><g transform="matrix(0.1171875 0 0 0.1171875 260 95)" id="L1_16"><path d="M498.334,19 300.144,305.103 279.486,334.925 279.486,435.065 354.796,361.463   316.334,289.667" fill="#f5c86e"/><path d="M209.505,313.515 64,269 502,10 502,403 283,336" fill="#fae196"/><path d="M279.486,435.065 213.353,314.693 498.334,19 285.632,326.052z" fill="#f5b955"/><path d="M506.955,1.314c-3.119-1.78-6.955-1.75-10.045,0.078L313.656,109.756c-4.754,2.811-6.329,8.943-3.518,13.697  c2.81,4.753,8.942,6.328,13.697,3.518l131.482-77.749L210.411,303.335L88.603,266.069l158.965-94  c4.754-2.812,6.329-8.944,3.518-13.698c-2.81-4.753-8.943-6.33-13.697-3.518L58.91,260.392c-3.41,2.017-5.309,5.856-4.84,9.791  s3.216,7.221,7.004,8.38l145.469,44.504L270.72,439.88c0.067,0.121,0.136,0.223,0.207,0.314c1.071,1.786,2.676,3.245,4.678,4.087  c1.253,0.527,2.57,0.784,3.878,0.784c2.563,0,5.086-0.986,6.991-2.849l73.794-72.12l138.806,42.466  c0.96,0.293,1.945,0.438,2.925,0.438c2.116,0,4.206-0.672,5.948-1.961C510.496,409.153,512,406.17,512,403V10  C512,6.409,510.074,3.093,506.955,1.314z M419.584,115.12L271.265,329.23c-1.158,1.673-1.779,3.659-1.779,5.694v61.171  l-43.823-79.765L419.584,115.12z M289.486,411.309v-62.867l48.99,14.988L289.486,411.309z M295.501,329.367L492,45.704v343.779  L295.501,329.367z"/><path d="M164.423,347.577c-3.906-3.905-10.236-3.905-14.143,0l-93.352,93.352c-3.905,3.905-3.905,10.237,0,14.143  C58.882,457.024,61.441,458,64,458c2.559,0,5.118-0.976,7.071-2.929l93.352-93.352C168.328,357.815,168.328,351.483,164.423,347.577  z"/><path d="M25.929,471.929l-23,23c-3.905,3.905-3.905,10.237,0,14.143C4.882,511.024,7.441,512,10,512s5.118-0.977,7.071-2.929l23-23  c3.905-3.905,3.905-10.237,0-14.143C36.165,468.025,29.835,468.025,25.929,471.929z"/><path d="M135.58,491.41c-2.641,0-5.21,1.07-7.07,2.93c-1.86,1.86-2.93,4.43-2.93,7.07c0,2.63,1.069,5.21,2.93,7.07  c1.86,1.86,4.44,2.93,7.07,2.93s5.21-1.07,7.069-2.93c1.86-1.86,2.931-4.44,2.931-7.07c0-2.64-1.07-5.21-2.931-7.07  C140.79,492.48,138.21,491.41,135.58,491.41z"/><path d="M202.909,419.935l-49.446,49.445c-3.905,3.905-3.905,10.237,0,14.142c1.953,1.953,4.512,2.929,7.071,2.929  s5.118-0.977,7.071-2.929l49.446-49.445c3.905-3.905,3.905-10.237,0-14.142C213.148,416.03,206.818,416.03,202.909,419.935z"/><path d="M373.562,416.139l-49.58,49.58c-3.905,3.905-3.905,10.237,0,14.143c1.953,1.952,4.512,2.929,7.071,2.929  s5.118-0.977,7.071-2.929l49.58-49.58c3.905-3.905,3.905-10.237,0-14.143C383.798,412.235,377.468,412.235,373.562,416.139z"/><path d="M276.43,153.38c2.63,0,5.21-1.06,7.07-2.93c1.859-1.86,2.93-4.43,2.93-7.06c0-2.64-1.07-5.22-2.93-7.08  s-4.44-2.93-7.07-2.93s-5.21,1.07-7.07,2.93c-1.859,1.86-2.93,4.44-2.93,7.08c0,2.63,1.07,5.2,2.93,7.06  C271.22,152.32,273.8,153.38,276.43,153.38z"/></g><g transform="matrix(0.09400346367309653 0.009724496519561187 -0.009724496519561187 0.09400346367309653 144.90138945075648 242.51800088840452)" id="L1_17"><path d="M452.84,196.65v232.26c0,4.14-3.36,7.5-7.5,7.5H7.5c-4.14,0-7.5-3.36-7.5-7.5V196.65c0-2.61,1.33-4.91,3.36-6.25   l57.81-38.33V23.93c0-4.14,3.36-7.5,7.5-7.5h315.49c4.14,0,7.5,3.36,7.5,7.5v128.13l57.82,38.34   C451.5,191.74,452.84,194.04,452.84,196.65z M437.84,414.94V209.12l-172.48,91.49L437.84,414.94z M391.66,189.15h28.79   l-28.79-19.09V189.15z M32.38,421.41h388.07L226.42,292.79L32.38,421.41z M391.66,216.64l23.53-12.49h-23.53V216.64z    M376.66,224.59V31.43H76.17v193.16l125.53,66.59l20.57-13.64c2.51-1.66,5.78-1.66,8.29,0l20.57,13.64L376.66,224.59z M15,414.94   l172.47-114.33L15,209.12V414.94z M61.17,216.63v-12.48H37.64L61.17,216.63z M61.17,189.15v-19.08l-28.78,19.08H61.17z"/><path d="M437.84,209.12 437.84,414.94 265.36,300.61z" fill="#3dd0f2"/><path d="M420.45,189.15 391.66,189.15 391.66,170.06z" fill="#3dd0f2"/><path d="M420.45,421.41 32.38,421.41 226.42,292.79z" fill="#3dd0f2"/><path d="M415.19,204.15 391.66,216.64 391.66,204.15z" fill="#3dd0f2"/><path d="M376.66,31.43v193.16l-125.53,66.59l-20.57-13.64c-2.51-1.66-5.78-1.66-8.29,0l-20.57,13.64   L76.17,224.59V31.43H376.66z M293.67,149.74v-5.54c0-37.08-30.17-67.25-67.26-67.25c-37.08,0-67.25,30.17-67.25,67.25v2.22   c0,37.08,30.17,67.25,67.25,67.25h59.76c4.14,0,7.5-3.36,7.5-7.5s-3.36-7.5-7.5-7.5h-59.76c-28.81,0-52.25-23.44-52.25-52.25v-2.22   c0-28.81,23.44-52.25,52.25-52.25c28.82,0,52.26,23.44,52.26,52.25v5.54c0,6.23-5.08,11.31-11.31,11.31   c-6.24,0-11.32-5.08-11.32-11.31v-10.51c0-17.87-14.53-32.4-32.39-32.4c-17.87,0-32.4,14.53-32.4,32.4   c0,17.86,14.53,32.39,32.4,32.39c8.17,0,15.63-3.04,21.34-8.05c4.64,7.48,12.93,12.48,22.37,12.48   C281.86,176.05,293.67,164.25,293.67,149.74z" fill="#ffffff"/><path d="M293.67,144.2v5.54c0,14.51-11.81,26.31-26.31,26.31c-9.44,0-17.73-5-22.37-12.48c-5.71,5.01-13.17,8.05-21.34,8.05   c-17.87,0-32.4-14.53-32.4-32.39c0-17.87,14.53-32.4,32.4-32.4c17.86,0,32.39,14.53,32.39,32.4v10.51   c0,6.23,5.08,11.31,11.32,11.31c6.23,0,11.31-5.08,11.31-11.31v-5.54c0-28.81-23.44-52.25-52.26-52.25   c-28.81,0-52.25,23.44-52.25,52.25v2.22c0,28.81,23.44,52.25,52.25,52.25h59.76c4.14,0,7.5,3.36,7.5,7.5s-3.36,7.5-7.5,7.5h-59.76   c-37.08,0-67.25-30.17-67.25-67.25v-2.22c0-37.08,30.17-67.25,67.25-67.25C263.5,76.95,293.67,107.12,293.67,144.2z M241.04,139.23   c0-9.6-7.8-17.4-17.39-17.4c-9.6,0-17.4,7.8-17.4,17.4c0,9.59,7.8,17.39,17.4,17.39C233.24,156.62,241.04,148.82,241.04,139.23z"/><path d="M223.65,121.83c9.59,0,17.39,7.8,17.39,17.4c0,9.59-7.8,17.39-17.39,17.39   c-9.6,0-17.4-7.8-17.4-17.39C206.25,129.63,214.05,121.83,223.65,121.83z" fill="#ffffff"/><path d="M187.47,300.61 15,414.94 15,209.12z" fill="#3dd0f2"/><path d="M61.17,204.15 61.17,216.63 37.64,204.15z" fill="#3dd0f2"/><path d="M61.17,170.07 61.17,189.15 32.39,189.15z" fill="#3dd0f2"/></g><g transform="matrix(0.6668428839219541 0.06898374858126732 -0.06898374858126732 0.6668428839219541 330.49437493014807 -14.883454165638888)" id="L1_18"><g fill="#9bc9ff"><path d="m61 37v-34l-21.049 17.001z"/><path d="m9 3v34l21.049-16.999z"/><path d="m36.257 22.985a2 2 0 0 1 -2.514 0l-3.694-2.985-21.049 17h52l-21.049-17z"/><path d="m30.049 20 3.694 2.984a2 2 0 0 0 2.514 0l3.694-2.984 21.049-17h-52z"/><path d="m15 57v-16h-12v20h12zm-6-9a2 2 0 1 1 2-2 2 2 0 0 1 -2 2z"/></g><path d="m9 38h52a1 1 0 0 0 1-1v-34a1 1 0 0 0 -1-1h-52a1 1 0 0 0 -1 1v34a1 1 0 0 0 1 1zm24.115-14.237a3.018 3.018 0 0 0 3.77 0l3.066-2.477 18.219 14.714h-46.34l18.219-14.714zm8.428-3.763 18.457-14.907v29.814zm-5.915 2.206a1 1 0 0 1 -1.256 0l-22.542-18.206h46.34zm-7.171-2.206-18.457 14.907v-29.814z" fill="#1e81ce"/><path d="m61.885 40.9a4.025 4.025 0 0 0 -5.495-1.446l-11.193 7a3.964 3.964 0 0 0 -2.7-2.462l-13.789-3.962a9 9 0 0 0 -7.259 1.012l-4.469 2.8a1.1 1.1 0 0 1 -.55.16h-.43v-3.002a1 1 0 0 0 -1-1h-12a1 1 0 0 0 -1 1v20a1 1 0 0 0 1 1h12a1 1 0 0 0 1-1v-2.522l2.2.879a8.87 8.87 0 0 0 3.34.643h16a8.928 8.928 0 0 0 5.051-1.552l17.833-12.084a4.007 4.007 0 0 0 1.461-5.464zm-47.885 19.1h-10v-18h10zm45.359-15.328-17.893 12.122a6.937 6.937 0 0 1 -3.926 1.206h-16a6.891 6.891 0 0 1 -2.6-.5l-2.94-1.177v-10.323h.43a3.11 3.11 0 0 0 1.591-.452l4.489-2.81a7 7 0 0 1 5.644-.787l13.809 3.966a1.985 1.985 0 0 1 1.472 2.1v.032a1.512 1.512 0 0 1 -.058.318 2.054 2.054 0 0 1 -2.464 1.411l-10.66-2.75a1 1 0 1 0 -.5 1.936l10.647 2.752a4.018 4.018 0 0 0 4.9-2.8c.019-.065.036-.132.052-.2l12.066-7.546a2.015 2.015 0 0 1 2.736.731 1.992 1.992 0 0 1 .267.992 2.065 2.065 0 0 1 -1.062 1.779z" fill="#1e81ce"/><path d="m9 43a3 3 0 1 0 3 3 3 3 0 0 0 -3-3zm0 4a1 1 0 1 1 1-1 1 1 0 0 1 -1 1z" fill="#1e81ce"/></g></defs><g fi:class="KUsePattern"><pattern id="pattern_L1_10" width="350" height="350" patternUnits="userSpaceOnUse"><use xlink:href="#L1_10" x="-350" y="-350"/><use xlink:href="#L1_10" x="0" y="-350"/><use xlink:href="#L1_10" x="350" y="-350"/><use xlink:href="#L1_10" x="-350" y="0"/><use xlink:href="#L1_10" x="0" y="0"/><use xlink:href="#L1_10" x="350" y="0"/><use xlink:href="#L1_10" x="-350" y="350"/><use xlink:href="#L1_10" x="0" y="350"/><use xlink:href="#L1_10" x="350" y="350"/></pattern><rect x="0" y="0" width="100%" height="100%" fill="url(#pattern_L1_10)"/></g><g fi:class="KUsePattern"><pattern id="pattern_L1_15" width="350" height="350" patternUnits="userSpaceOnUse"><use xlink:href="#L1_15" x="-350" y="-350"/><use xlink:href="#L1_15" x="0" y="-350"/><use xlink:href="#L1_15" x="350" y="-350"/><use xlink:href="#L1_15" x="-350" y="0"/><use xlink:href="#L1_15" x="0" y="0"/><use xlink:href="#L1_15" x="350" y="0"/><use xlink:href="#L1_15" x="-350" y="350"/><use xlink:href="#L1_15" x="0" y="350"/><use xlink:href="#L1_15" x="350" y="350"/></pattern><rect x="0" y="0" width="100%" height="100%" fill="url(#pattern_L1_15)"/></g><g fi:class="KUsePattern"><pattern id="pattern_L1_16" width="350" height="350" patternUnits="userSpaceOnUse"><use xlink:href="#L1_16" x="-350" y="-350"/><use xlink:href="#L1_16" x="0" y="-350"/><use xlink:href="#L1_16" x="350" y="-350"/><use xlink:href="#L1_16" x="-350" y="0"/><use xlink:href="#L1_16" x="0" y="0"/><use xlink:href="#L1_16" x="350" y="0"/><use xlink:href="#L1_16" x="-350" y="350"/><use xlink:href="#L1_16" x="0" y="350"/><use xlink:href="#L1_16" x="350" y="350"/></pattern><rect x="0" y="0" width="100%" height="100%" fill="url(#pattern_L1_16)"/></g><g fi:class="KUsePattern"><pattern id="pattern_L1_17" width="350" height="350" patternUnits="userSpaceOnUse"><use xlink:href="#L1_17" x="-350" y="-350"/><use xlink:href="#L1_17" x="0" y="-350"/><use xlink:href="#L1_17" x="350" y="-350"/><use xlink:href="#L1_17" x="-350" y="0"/><use xlink:href="#L1_17" x="0" y="0"/><use xlink:href="#L1_17" x="350" y="0"/><use xlink:href="#L1_17" x="-350" y="350"/><use xlink:href="#L1_17" x="0" y="350"/><use xlink:href="#L1_17" x="350" y="350"/></pattern><rect x="0" y="0" width="100%" height="100%" fill="url(#pattern_L1_17)"/></g><g fi:class="KUsePattern"><pattern id="pattern_L1_18" width="350" height="350" patternUnits="userSpaceOnUse"><use xlink:href="#L1_18" x="-350" y="-350"/><use xlink:href="#L1_18" x="0" y="-350"/><use xlink:href="#L1_18" x="350" y="-350"/><use xlink:href="#L1_18" x="-350" y="0"/><use xlink:href="#L1_18" x="0" y="0"/><use xlink:href="#L1_18" x="350" y="0"/><use xlink:href="#L1_18" x="-350" y="350"/><use xlink:href="#L1_18" x="0" y="350"/><use xlink:href="#L1_18" x="350" y="350"/></pattern><rect x="0" y="0" width="100%" height="100%" fill="url(#pattern_L1_18)"/></g></svg>